<svg width="100" height="100" xmlns="http://www.w3.org/2000/svg">
 <!-- Created with Method Draw - http://github.com/duopixel/Method-Draw/ -->

 <g>
  <title>Layer 1</title>
  <ellipse ry="30" rx="30" id="svg_1" cy="50" cx="49.999996" stroke-width="0" stroke="#000" fill="#000000"/>
  <path d="m36.351151,51.554893c-0.854065,-0.507626 -0.74202,-0.815033 1.334442,-3.660706c1.048485,-1.436901 1.906288,-2.654316 1.906288,-2.705345c0,-0.051041 -2.895195,-0.092781 -6.433891,-0.092781l-6.433882,0l0,-2.691208l0,-2.691181l6.484907,0c5.000191,0 6.429085,-0.081089 6.241127,-0.354122c-0.134102,-0.19474 -1.048706,-1.487106 -2.032578,-2.871933c-1.854477,-2.610397 -1.853912,-3.31044 0.002907,-3.52742c0.924026,-0.108006 15.310463,8.188904 15.804955,9.11499c-4.792007,3.306652 -10.520042,6.767853 -15.796516,9.819656c-0.278236,0 -0.763237,-0.152962 -1.077759,-0.339951z"/>
  <path transform="rotate(-135, 85.5044, 86.2328)" id="svg_28" d="m82.002731,93.428696c-0.825333,-0.40036 -0.717072,-0.642456 1.289528,-2.885803c1.013222,-1.132309 1.842171,-2.092316 1.842171,-2.132248c0,-0.040344 -2.797798,-0.073181 -6.21743,-0.073181l-6.217453,0l0,-2.121506l0,-2.121521l6.266762,0c4.831963,0 6.212776,-0.063446 6.031105,-0.278915c-0.129547,-0.153641 -1.013443,-1.172363 -1.964157,-2.26384c-1.792084,-2.057495 -1.791534,-2.60936 0.002808,-2.780396c0.892944,-0.084991 14.795395,6.455032 15.273239,7.185104c-4.630768,2.606308 -10.166168,5.334549 -15.265076,7.740051c-0.268875,0 -0.737564,-0.120224 -1.041496,-0.267746z" fill-opacity="null" stroke-opacity="null" stroke-width="null" stroke="null" fill="null"/>
  <path transform="rotate(45, 15.126, 14.0723)" id="svg_29" d="m11.624109,21.268341c-0.825331,-0.400368 -0.71707,-0.642456 1.289524,-2.885811c1.013226,-1.132309 1.842178,-2.092316 1.842178,-2.132248c0,-0.040337 -2.797802,-0.073181 -6.217434,-0.073181l-6.217454,0l0,-2.121498l0,-2.121529l6.266763,0c4.831966,0 6.21278,-0.063438 6.031105,-0.278915c-0.129547,-0.153641 -1.013443,-1.172356 -1.964157,-2.263832c-1.79208,-2.057503 -1.791533,-2.609367 0.002811,-2.780403c0.892941,-0.084984 14.795395,6.455032 15.273232,7.185104c-4.630764,2.606316 -10.166164,5.334549 -15.265068,7.740051c-0.268873,0 -0.737566,-0.120224 -1.0415,-0.267738z" fill-opacity="null" stroke-opacity="null" stroke-width="null" stroke="null" fill="null"/>
  <path transform="rotate(-45, 14.9023, 85.5673)" id="svg_30" d="m11.40139,92.760536c-0.825325,-0.400368 -0.717064,-0.642456 1.289528,-2.885811c1.013222,-1.132309 1.842178,-2.092316 1.842178,-2.132248c0,-0.040337 -2.797806,-0.073181 -6.217438,-0.073181l-6.217449,0l0,-2.121498l0,-2.121529l6.266758,0c4.83197,0 6.212784,-0.063438 6.031113,-0.278915c-0.129547,-0.153641 -1.013443,-1.172356 -1.964157,-2.263832c-1.792084,-2.057503 -1.791534,-2.609367 0.002808,-2.780403c0.892944,-0.084984 14.795395,6.455032 15.273232,7.185104c-4.63076,2.606316 -10.166161,5.334549 -15.265068,7.740051c-0.268875,0 -0.737564,-0.120224 -1.041504,-0.267738z" fill-opacity="null" stroke-opacity="null" stroke-width="null" stroke="null" fill="null"/>
  <path transform="rotate(135, 85.2808, 14.2958)" id="svg_31" d="m81.780006,21.491055c-0.825325,-0.400368 -0.717064,-0.642456 1.289528,-2.885811c1.013222,-1.132309 1.842178,-2.092316 1.842178,-2.132248c0,-0.040337 -2.797806,-0.073181 -6.217438,-0.073181l-6.217453,0l0,-2.121498l0,-2.121529l6.266762,0c4.83197,0 6.212784,-0.063438 6.031113,-0.278915c-0.129547,-0.153641 -1.013443,-1.172356 -1.964157,-2.263832c-1.792084,-2.057503 -1.791534,-2.609367 0.002808,-2.780403c0.892944,-0.084984 14.795395,6.455032 15.273232,7.185104c-4.63076,2.606316 -10.166161,5.334549 -15.265068,7.740051c-0.268875,0 -0.737564,-0.120224 -1.041504,-0.267738z" fill-opacity="null" stroke-opacity="null" stroke-width="null" stroke="null" fill="null"/>
 </g>
</svg>